<?xml version="1.0" encoding="UTF-8"?>
<svg width="32px" height="32px" viewBox="0 0 32 32" version="1.1" xmlns="http://www.w3.org/2000/svg" xmlns:xlink="http://www.w3.org/1999/xlink">
    <!-- Generator: Sketch 51.2 (57519) - http://www.bohemiancoding.com/sketch -->
    <title>Icons / icon alert circle</title>
    <desc>Created with Sketch.</desc>
    <defs></defs>
    <g id="Symbols" stroke="none" stroke-width="1" fill="none" fill-rule="evenodd">
        <g id="List-/-list-icon-2-lines" transform="translate(-16.000000, -20.000000)" fill="#3E50B4">
            <g id="Icons-/-icon-alert-circle" transform="translate(16.000000, 20.000000)">
                <path d="M16,0 C18.1737865,0 20.2337975,0.417057441 22.1800948,1.25118483 C24.126392,2.08531223 25.8262171,3.22274161 27.2796209,4.66350711 C28.7330246,6.10427261 29.8894112,7.79777858 30.7488152,9.74407583 C31.5829426,11.6903731 32,13.7756603 32,16 C32,18.2243397 31.5829426,20.3096269 30.7488152,22.2559242 C29.8894112,24.2022214 28.7330246,25.8957274 27.2796209,27.3364929 C25.8262171,28.7772584 24.126392,29.9146878 22.1800948,30.7488152 C20.2337975,31.5829426 18.1737865,32 16,32 C13.7756603,32 11.6903731,31.5829426 9.74407583,30.7488152 C7.79777858,29.9146878 6.10427261,28.7772584 4.66350711,27.3364929 C3.22274161,25.8957274 2.08531223,24.2022214 1.25118483,22.2559242 C0.417057441,20.3096269 0,18.2243397 0,16 C0,13.7756603 0.417057441,11.6903731 1.25118483,9.74407583 C2.11058882,7.79777858 3.26697536,6.10427261 4.72037915,4.66350711 C6.17378294,3.22274161 7.87360796,2.08531223 9.81990521,1.25118483 C11.7662025,0.417057441 13.8262135,0 16,0 Z M16,30.0663507 C17.9462973,30.0663507 19.7661843,29.6998457 21.4597156,28.9668246 C23.1785236,28.2338036 24.676139,27.2290743 25.9526066,25.9526066 C27.2290743,24.676139 28.2338036,23.1785236 28.9668246,21.4597156 C29.6998457,19.7661843 30.0663507,17.9462973 30.0663507,16 C30.0663507,14.0537027 29.6998457,12.2338157 28.9668246,10.5402844 C28.2338036,8.8214764 27.2290743,7.32386104 25.9526066,6.04739336 C24.676139,4.77092569 23.1785236,3.7661964 21.4597156,3.03317536 C19.7661843,2.30015431 17.9462973,1.93364929 16,1.93364929 C14.0537027,1.93364929 12.2338157,2.30015431 10.5402844,3.03317536 C8.8214764,3.7661964 7.32386104,4.77092569 6.04739336,6.04739336 C4.77092569,7.32386104 3.7661964,8.8214764 3.03317536,10.5402844 C2.30015431,12.2338157 1.93364929,14.0537027 1.93364929,16 C1.93364929,17.9462973 2.30015431,19.7661843 3.03317536,21.4597156 C3.7661964,23.1785236 4.77092569,24.676139 6.04739336,25.9526066 C7.32386104,27.2290743 8.8214764,28.2338036 10.5402844,28.9668246 C12.2338157,29.6998457 14.0537027,30.0663507 16,30.0663507 Z M16,17.4407583 C15.7472341,17.4407583 15.5197482,17.3459725 15.3175355,17.1563981 C15.1153228,16.9668237 15.014218,16.7962093 15.014218,16.6445498 L15.014218,9.51658768 C15.014218,9.28909839 15.1153228,9.07425062 15.3175355,8.87203791 C15.5197482,8.66982521 15.7472341,8.56872038 16,8.56872038 C16.2527659,8.56872038 16.4802518,8.66982521 16.6824645,8.87203791 C16.8846772,9.07425062 16.985782,9.28909839 16.985782,9.51658768 L16.985782,16.492891 C16.985782,16.7203803 16.8846772,16.9352281 16.6824645,17.1374408 C16.4802518,17.3396535 16.2527659,17.4407583 16,17.4407583 Z M17.4407583,21.0047393 C17.4407583,21.4091647 17.3017391,21.7567126 17.0236967,22.0473934 C16.7456542,22.3380741 16.4044254,22.4834123 16,22.4834123 C15.5955746,22.4834123 15.2543458,22.3380741 14.9763033,22.0473934 C14.6982609,21.7567126 14.5592417,21.4091647 14.5592417,21.0047393 C14.5592417,20.6003139 14.6982609,20.2590851 14.9763033,19.9810427 C15.2543458,19.7030002 15.5955746,19.563981 16,19.563981 C16.4044254,19.563981 16.7456542,19.7030002 17.0236967,19.9810427 C17.3017391,20.2590851 17.4407583,20.6003139 17.4407583,21.0047393 Z" id=""></path>
            </g>
        </g>
    </g>
</svg>